STARTFONT 2.1
FONT -URW-ITC Bookman-Demi-I-Normal--8-80-72-72-P-48-ISO8859-1
SIZE 8 72 72
FONTBOUNDINGBOX 14 10 -3 -2

STARTPROPERTIES 22
FONTNAME_REGISTRY "-"
FOUNDRY "URW"
FAMILY_NAME "ITC Bookman"
WEIGHT_NAME "Demi"
SLANT "I"
SETWIDTH_NAME "Normal"
ADD_STYLE_NAME ""
PIXEL_SIZE 8
POINT_SIZE 80
RESOLUTION_X 72
RESOLUTION_Y 72
SPACING "P"
CHARSET_REGISTRY "ISO8859"
CHARSET_ENCODING "1"
FULL_NAME "Bookman-DemiItalic"
AVERAGE_WIDTH 48
WEIGHT 10
X_HEIGHT 4
QUAD_WIDTH 5
DEFAULT_CHAR 32
FONT_DESCENT 1
FONT_ASCENT 8
ENDPROPERTIES

CHARS 190

STARTCHAR space
ENCODING 32
SWIDTH 340 0
DWIDTH 3 0
BBX 1 1 0 0
BITMAP
00
ENDCHAR

STARTCHAR exclam
ENCODING 33
SWIDTH 320 0
DWIDTH 3 0
BBX 2 6 1 0
BITMAP
40
40
40
40
00
80
ENDCHAR

STARTCHAR quotedbl
ENCODING 34
SWIDTH 380 0
DWIDTH 3 0
BBX 3 3 1 3
BITMAP
A0
A0
A0
ENDCHAR

STARTCHAR numbersign
ENCODING 35
SWIDTH 680 0
DWIDTH 5 0
BBX 4 6 1 0
BITMAP
50
50
F0
F0
A0
A0
ENDCHAR

STARTCHAR dollar
ENCODING 36
SWIDTH 680 0
DWIDTH 5 0
BBX 5 9 0 -2
BITMAP
10
78
40
60
18
18
F0
20
20
ENDCHAR

STARTCHAR percent
ENCODING 37
SWIDTH 880 0
DWIDTH 7 0
BBX 6 6 1 0
BITMAP
6C
B8
D0
2C
34
4C
ENDCHAR

STARTCHAR ampersand
ENCODING 38
SWIDTH 980 0
DWIDTH 8 0
BBX 8 6 0 0
BITMAP
30
7E
52
7C
99
F6
ENDCHAR

STARTCHAR quoteright
ENCODING 39
SWIDTH 320 0
DWIDTH 3 0
BBX 1 2 1 4
BITMAP
80
80
ENDCHAR

STARTCHAR parenleft
ENCODING 40
SWIDTH 260 0
DWIDTH 2 0
BBX 3 7 0 -1
BITMAP
60
40
40
80
80
80
C0
ENDCHAR

STARTCHAR parenright
ENCODING 41
SWIDTH 260 0
DWIDTH 2 0
BBX 3 7 0 -1
BITMAP
60
20
20
60
40
40
80
ENDCHAR

STARTCHAR asterisk
ENCODING 42
SWIDTH 460 0
DWIDTH 4 0
BBX 3 4 1 2
BITMAP
C0
E0
E0
60
ENDCHAR

STARTCHAR plus
ENCODING 43
SWIDTH 600 0
DWIDTH 5 0
BBX 5 3 0 1
BITMAP
20
F8
20
ENDCHAR

STARTCHAR comma
ENCODING 44
SWIDTH 340 0
DWIDTH 3 0
BBX 2 2 1 -1
BITMAP
C0
80
ENDCHAR

STARTCHAR minus
ENCODING 45
SWIDTH 600 0
DWIDTH 5 0
BBX 4 1 1 2
BITMAP
F0
ENDCHAR

STARTCHAR period
ENCODING 46
SWIDTH 340 0
DWIDTH 3 0
BBX 2 1 1 0
BITMAP
C0
ENDCHAR

STARTCHAR slash
ENCODING 47
SWIDTH 360 0
DWIDTH 3 0
BBX 4 7 0 -1
BITMAP
10
20
20
60
40
40
80
ENDCHAR

STARTCHAR zero
ENCODING 48
SWIDTH 680 0
DWIDTH 5 0
BBX 5 6 1 0
BITMAP
70
58
C8
98
90
70
ENDCHAR

STARTCHAR one
ENCODING 49
SWIDTH 680 0
DWIDTH 5 0
BBX 4 6 1 0
BITMAP
60
20
20
60
60
F0
ENDCHAR

STARTCHAR two
ENCODING 50
SWIDTH 680 0
DWIDTH 5 0
BBX 5 6 1 0
BITMAP
70
58
58
30
48
F0
ENDCHAR

STARTCHAR three
ENCODING 51
SWIDTH 680 0
DWIDTH 5 0
BBX 5 6 1 0
BITMAP
70
58
10
38
98
F0
ENDCHAR

STARTCHAR four
ENCODING 52
SWIDTH 680 0
DWIDTH 5 0
BBX 5 6 1 0
BITMAP
18
30
50
D0
F8
30
ENDCHAR

STARTCHAR five
ENCODING 53
SWIDTH 680 0
DWIDTH 5 0
BBX 5 6 1 0
BITMAP
78
40
70
98
98
F0
ENDCHAR

STARTCHAR six
ENCODING 54
SWIDTH 680 0
DWIDTH 5 0
BBX 5 6 1 0
BITMAP
78
40
F0
D8
98
70
ENDCHAR

STARTCHAR seven
ENCODING 55
SWIDTH 680 0
DWIDTH 5 0
BBX 5 6 1 0
BITMAP
F8
90
30
20
60
60
ENDCHAR

STARTCHAR eight
ENCODING 56
SWIDTH 680 0
DWIDTH 5 0
BBX 5 6 1 0
BITMAP
78
48
48
F8
98
F0
ENDCHAR

STARTCHAR nine
ENCODING 57
SWIDTH 680 0
DWIDTH 5 0
BBX 5 6 1 0
BITMAP
78
48
C8
78
18
F0
ENDCHAR

STARTCHAR colon
ENCODING 58
SWIDTH 340 0
DWIDTH 3 0
BBX 2 4 1 0
BITMAP
C0
00
00
C0
ENDCHAR

STARTCHAR semicolon
ENCODING 59
SWIDTH 340 0
DWIDTH 3 0
BBX 2 5 1 -1
BITMAP
40
00
C0
80
80
ENDCHAR

STARTCHAR less
ENCODING 60
SWIDTH 620 0
DWIDTH 5 0
BBX 4 4 1 0
BITMAP
10
E0
E0
10
ENDCHAR

STARTCHAR equal
ENCODING 61
SWIDTH 600 0
DWIDTH 5 0
BBX 4 3 1 1
BITMAP
F0
00
F0
ENDCHAR

STARTCHAR greater
ENCODING 62
SWIDTH 620 0
DWIDTH 5 0
BBX 4 4 1 0
BITMAP
C0
70
70
C0
ENDCHAR

STARTCHAR question
ENCODING 63
SWIDTH 620 0
DWIDTH 5 0
BBX 4 6 1 0
BITMAP
70
90
30
60
00
40
ENDCHAR

STARTCHAR at
ENCODING 64
SWIDTH 780 0
DWIDTH 6 0
BBX 6 6 1 0
BITMAP
78
88
B4
D4
FC
78
ENDCHAR

STARTCHAR A
ENCODING 65
SWIDTH 720 0
DWIDTH 6 0
BBX 6 6 0 0
BITMAP
18
18
28
78
4C
DC
ENDCHAR

STARTCHAR B
ENCODING 66
SWIDTH 720 0
DWIDTH 6 0
BBX 6 6 0 0
BITMAP
7C
64
6C
7C
4C
F8
ENDCHAR

STARTCHAR C
ENCODING 67
SWIDTH 700 0
DWIDTH 6 0
BBX 5 6 1 0
BITMAP
38
48
C8
C0
C8
70
ENDCHAR

STARTCHAR D
ENCODING 68
SWIDTH 760 0
DWIDTH 6 0
BBX 6 6 0 0
BITMAP
7C
64
64
64
4C
F8
ENDCHAR

STARTCHAR E
ENCODING 69
SWIDTH 720 0
DWIDTH 6 0
BBX 6 6 0 0
BITMAP
7C
64
74
70
54
F8
ENDCHAR

STARTCHAR F
ENCODING 70
SWIDTH 660 0
DWIDTH 5 0
BBX 6 6 0 0
BITMAP
7C
60
70
70
50
E0
ENDCHAR

STARTCHAR G
ENCODING 71
SWIDTH 760 0
DWIDTH 6 0
BBX 6 6 1 0
BITMAP
78
48
C4
DC
C8
78
ENDCHAR

STARTCHAR H
ENCODING 72
SWIDTH 800 0
DWIDTH 6 0
BBX 7 6 0 0
BITMAP
7E
64
7C
4C
4C
FC
ENDCHAR

STARTCHAR I
ENCODING 73
SWIDTH 380 0
DWIDTH 3 0
BBX 4 6 0 0
BITMAP
70
60
60
40
40
E0
ENDCHAR

STARTCHAR J
ENCODING 74
SWIDTH 620 0
DWIDTH 5 0
BBX 6 6 0 0
BITMAP
1C
18
18
D0
90
F0
ENDCHAR

STARTCHAR K
ENCODING 75
SWIDTH 780 0
DWIDTH 6 0
BBX 7 6 0 0
BITMAP
7E
6C
78
68
48
FC
ENDCHAR

STARTCHAR L
ENCODING 76
SWIDTH 640 0
DWIDTH 5 0
BBX 6 6 0 0
BITMAP
70
60
60
40
4C
F8
ENDCHAR

STARTCHAR M
ENCODING 77
SWIDTH 860 0
DWIDTH 7 0
BBX 8 6 0 0
BITMAP
67
7E
7E
74
54
DE
ENDCHAR

STARTCHAR N
ENCODING 78
SWIDTH 740 0
DWIDTH 6 0
BBX 7 6 0 0
BITMAP
6E
54
54
54
48
C8
ENDCHAR

STARTCHAR O
ENCODING 79
SWIDTH 760 0
DWIDTH 6 0
BBX 6 6 1 0
BITMAP
38
4C
CC
CC
C8
70
ENDCHAR

STARTCHAR P
ENCODING 80
SWIDTH 640 0
DWIDTH 5 0
BBX 6 6 0 0
BITMAP
78
6C
6C
78
40
E0
ENDCHAR

STARTCHAR Q
ENCODING 81
SWIDTH 760 0
DWIDTH 6 0
BBX 6 8 0 -2
BITMAP
38
6C
C4
CC
FC
F8
88
70
ENDCHAR

STARTCHAR R
ENCODING 82
SWIDTH 740 0
DWIDTH 6 0
BBX 6 6 0 0
BITMAP
7C
6C
7C
48
48
EC
ENDCHAR

STARTCHAR S
ENCODING 83
SWIDTH 700 0
DWIDTH 6 0
BBX 5 6 0 0
BITMAP
78
48
70
98
88
F8
ENDCHAR

STARTCHAR T
ENCODING 84
SWIDTH 700 0
DWIDTH 6 0
BBX 6 6 1 0
BITMAP
FC
B4
20
20
20
70
ENDCHAR

STARTCHAR U
ENCODING 85
SWIDTH 740 0
DWIDTH 6 0
BBX 6 6 1 0
BITMAP
EC
48
C8
C8
C8
F0
ENDCHAR

STARTCHAR V
ENCODING 86
SWIDTH 660 0
DWIDTH 5 0
BBX 6 6 1 0
BITMAP
EC
48
48
50
70
20
ENDCHAR

STARTCHAR W
ENCODING 87
SWIDTH 1000 0
DWIDTH 8 0
BBX 8 6 1 0
BITMAP
FF
5A
5A
7E
6C
6C
ENDCHAR

STARTCHAR X
ENCODING 88
SWIDTH 740 0
DWIDTH 6 0
BBX 7 6 0 0
BITMAP
7E
24
38
38
58
FC
ENDCHAR

STARTCHAR Y
ENCODING 89
SWIDTH 660 0
DWIDTH 5 0
BBX 6 6 1 0
BITMAP
EC
48
30
30
20
70
ENDCHAR

STARTCHAR Z
ENCODING 90
SWIDTH 680 0
DWIDTH 5 0
BBX 6 6 0 0
BITMAP
7C
C8
10
20
4C
F8
ENDCHAR

STARTCHAR bracketleft
ENCODING 91
SWIDTH 260 0
DWIDTH 2 0
BBX 3 7 0 -1
BITMAP
60
40
40
40
80
80
C0
ENDCHAR

STARTCHAR backslash
ENCODING 92
SWIDTH 580 0
DWIDTH 5 0
BBX 4 7 1 -1
BITMAP
80
40
40
60
20
20
10
ENDCHAR

STARTCHAR bracketright
ENCODING 93
SWIDTH 260 0
DWIDTH 2 0
BBX 3 7 0 -1
BITMAP
60
20
40
40
40
40
C0
ENDCHAR

STARTCHAR asciicircum
ENCODING 94
SWIDTH 620 0
DWIDTH 5 0
BBX 4 3 1 3
BITMAP
60
60
90
ENDCHAR

STARTCHAR underscore
ENCODING 95
SWIDTH 500 0
DWIDTH 4 0
BBX 4 1 0 -2
BITMAP
F0
ENDCHAR

STARTCHAR quoteleft
ENCODING 96
SWIDTH 320 0
DWIDTH 3 0
BBX 1 2 1 4
BITMAP
80
80
ENDCHAR

STARTCHAR a
ENCODING 97
SWIDTH 680 0
DWIDTH 5 0
BBX 5 4 1 0
BITMAP
78
D0
90
F8
ENDCHAR

STARTCHAR b
ENCODING 98
SWIDTH 600 0
DWIDTH 5 0
BBX 5 7 0 0
BITMAP
C0
40
40
70
D8
90
F0
ENDCHAR

STARTCHAR c
ENCODING 99
SWIDTH 560 0
DWIDTH 4 0
BBX 4 4 0 0
BITMAP
70
C0
90
E0
ENDCHAR

STARTCHAR d
ENCODING 100
SWIDTH 680 0
DWIDTH 5 0
BBX 5 7 0 0
BITMAP
18
18
18
70
D0
90
F8
ENDCHAR

STARTCHAR e
ENCODING 101
SWIDTH 560 0
DWIDTH 4 0
BBX 4 4 0 0
BITMAP
70
D0
F0
E0
ENDCHAR

STARTCHAR f
ENCODING 102
SWIDTH 420 0
DWIDTH 3 0
BBX 7 9 -1 -2
BITMAP
0E
08
18
38
10
10
10
30
E0
ENDCHAR

STARTCHAR g
ENCODING 103
SWIDTH 620 0
DWIDTH 5 0
BBX 5 6 0 -2
BITMAP
78
C8
58
78
10
E0
ENDCHAR

STARTCHAR h
ENCODING 104
SWIDTH 700 0
DWIDTH 6 0
BBX 5 7 1 0
BITMAP
C0
40
40
70
D0
D0
98
ENDCHAR

STARTCHAR i
ENCODING 105
SWIDTH 380 0
DWIDTH 3 0
BBX 3 7 1 0
BITMAP
40
00
00
C0
40
C0
E0
ENDCHAR

STARTCHAR j
ENCODING 106
SWIDTH 320 0
DWIDTH 3 0
BBX 4 9 0 -2
BITMAP
10
00
00
30
10
30
30
20
E0
ENDCHAR

STARTCHAR k
ENCODING 107
SWIDTH 700 0
DWIDTH 6 0
BBX 5 7 1 0
BITMAP
C0
40
40
58
E0
E0
98
ENDCHAR

STARTCHAR l
ENCODING 108
SWIDTH 380 0
DWIDTH 3 0
BBX 2 7 1 0
BITMAP
C0
40
40
C0
C0
80
C0
ENDCHAR

STARTCHAR m
ENCODING 109
SWIDTH 960 0
DWIDTH 8 0
BBX 7 4 1 0
BITMAP
FE
56
D4
B6
ENDCHAR

STARTCHAR n
ENCODING 110
SWIDTH 680 0
DWIDTH 5 0
BBX 5 4 1 0
BITMAP
F0
50
D0
98
ENDCHAR

STARTCHAR o
ENCODING 111
SWIDTH 600 0
DWIDTH 5 0
BBX 5 4 0 0
BITMAP
70
D8
90
F0
ENDCHAR

STARTCHAR p
ENCODING 112
SWIDTH 660 0
DWIDTH 5 0
BBX 6 6 0 -2
BITMAP
78
6C
68
78
40
E0
ENDCHAR

STARTCHAR q
ENCODING 113
SWIDTH 620 0
DWIDTH 5 0
BBX 5 6 0 -2
BITMAP
78
D0
90
F0
10
30
ENDCHAR

STARTCHAR r
ENCODING 114
SWIDTH 500 0
DWIDTH 4 0
BBX 4 4 1 0
BITMAP
F0
40
C0
80
ENDCHAR

STARTCHAR s
ENCODING 115
SWIDTH 540 0
DWIDTH 4 0
BBX 4 4 0 0
BITMAP
70
60
10
F0
ENDCHAR

STARTCHAR t
ENCODING 116
SWIDTH 440 0
DWIDTH 4 0
BBX 3 5 1 0
BITMAP
40
E0
C0
80
E0
ENDCHAR

STARTCHAR u
ENCODING 117
SWIDTH 680 0
DWIDTH 5 0
BBX 5 4 1 0
BITMAP
D8
50
D0
F8
ENDCHAR

STARTCHAR v
ENCODING 118
SWIDTH 540 0
DWIDTH 4 0
BBX 4 4 0 0
BITMAP
D0
50
D0
E0
ENDCHAR

STARTCHAR w
ENCODING 119
SWIDTH 860 0
DWIDTH 7 0
BBX 7 4 0 0
BITMAP
DE
52
D4
F8
ENDCHAR

STARTCHAR x
ENCODING 120
SWIDTH 620 0
DWIDTH 5 0
BBX 5 4 0 0
BITMAP
78
20
60
F8
ENDCHAR

STARTCHAR y
ENCODING 121
SWIDTH 600 0
DWIDTH 5 0
BBX 5 6 0 -2
BITMAP
C8
58
50
70
10
E0
ENDCHAR

STARTCHAR z
ENCODING 122
SWIDTH 560 0
DWIDTH 4 0
BBX 4 4 0 0
BITMAP
70
E0
40
F0
ENDCHAR

STARTCHAR braceleft
ENCODING 123
SWIDTH 300 0
DWIDTH 2 0
BBX 3 7 0 -1
BITMAP
60
40
40
C0
80
80
C0
ENDCHAR

STARTCHAR bar
ENCODING 124
SWIDTH 620 0
DWIDTH 5 0
BBX 1 6 2 0
BITMAP
80
80
80
80
80
80
ENDCHAR

STARTCHAR braceright
ENCODING 125
SWIDTH 300 0
DWIDTH 2 0
BBX 3 7 0 -1
BITMAP
60
20
40
60
40
40
C0
ENDCHAR

STARTCHAR asciitilde
ENCODING 126
SWIDTH 620 0
DWIDTH 5 0
BBX 4 2 1 1
BITMAP
D0
B0
ENDCHAR

STARTCHAR exclamdown
ENCODING 161
SWIDTH 320 0
DWIDTH 3 0
BBX 2 6 1 -2
BITMAP
40
00
40
40
C0
80
ENDCHAR

STARTCHAR cent
ENCODING 162
SWIDTH 680 0
DWIDTH 5 0
BBX 4 5 1 1
BITMAP
20
F0
80
F0
40
ENDCHAR

STARTCHAR sterling
ENCODING 163
SWIDTH 680 0
DWIDTH 5 0
BBX 6 6 0 0
BITMAP
1C
14
30
78
E8
DC
ENDCHAR

STARTCHAR currency
ENCODING 164
SWIDTH 680 0
DWIDTH 5 0
BBX 4 4 0 1
BITMAP
F0
90
90
F0
ENDCHAR

STARTCHAR yen
ENCODING 165
SWIDTH 680 0
DWIDTH 5 0
BBX 6 6 1 0
BITMAP
FC
48
70
F8
F0
60
ENDCHAR

STARTCHAR brokenbar
ENCODING 166
SWIDTH 620 0
DWIDTH 5 0
BBX 1 6 2 0
BITMAP
80
80
80
00
80
80
ENDCHAR

STARTCHAR section
ENCODING 167
SWIDTH 620 0
DWIDTH 5 0
BBX 5 7 0 -1
BITMAP
78
40
70
C8
30
90
F0
ENDCHAR

STARTCHAR dieresis
ENCODING 168
SWIDTH 520 0
DWIDTH 4 0
BBX 3 1 1 5
BITMAP
A0
ENDCHAR

STARTCHAR copyright
ENCODING 169
SWIDTH 780 0
DWIDTH 6 0
BBX 6 6 0 0
BITMAP
78
CC
BC
AC
FC
78
ENDCHAR

STARTCHAR ordfeminine
ENCODING 170
SWIDTH 440 0
DWIDTH 4 0
BBX 4 4 0 2
BITMAP
60
A0
60
F0
ENDCHAR

STARTCHAR guillemotleft
ENCODING 171
SWIDTH 380 0
DWIDTH 3 0
BBX 3 4 0 0
BITMAP
60
E0
C0
A0
ENDCHAR

STARTCHAR logicalnot
ENCODING 172
SWIDTH 620 0
DWIDTH 5 0
BBX 4 2 1 1
BITMAP
F0
10
ENDCHAR

STARTCHAR hyphen
ENCODING 173
SWIDTH 280 0
DWIDTH 2 0
BBX 2 1 0 2
BITMAP
C0
ENDCHAR

STARTCHAR registered
ENCODING 174
SWIDTH 780 0
DWIDTH 6 0
BBX 6 6 0 0
BITMAP
78
FC
F4
E4
DC
78
ENDCHAR

STARTCHAR macron
ENCODING 175
SWIDTH 480 0
DWIDTH 4 0
BBX 3 1 1 5
BITMAP
E0
ENDCHAR

STARTCHAR degree
ENCODING 176
SWIDTH 400 0
DWIDTH 3 0
BBX 3 4 1 2
BITMAP
40
A0
A0
40
ENDCHAR

STARTCHAR plusminus
ENCODING 177
SWIDTH 600 0
DWIDTH 5 0
BBX 5 4 0 0
BITMAP
20
F8
20
F8
ENDCHAR

STARTCHAR twosuperior
ENCODING 178
SWIDTH 408 0
DWIDTH 3 0
BBX 3 3 -3 3
BITMAP
60
E0
E0
ENDCHAR

STARTCHAR threesuperior
ENCODING 179
SWIDTH 408 0
DWIDTH 3 0
BBX 3 3 -3 3
BITMAP
E0
E0
E0
ENDCHAR

STARTCHAR acute
ENCODING 180
SWIDTH 340 0
DWIDTH 3 0
BBX 2 2 1 4
BITMAP
40
80
ENDCHAR

STARTCHAR mu
ENCODING 181
SWIDTH 680 0
DWIDTH 5 0
BBX 5 6 0 -2
BITMAP
C8
58
50
F8
80
80
ENDCHAR

STARTCHAR paragraph
ENCODING 182
SWIDTH 680 0
DWIDTH 5 0
BBX 5 8 1 -2
BITMAP
78
D8
A8
A8
68
30
30
78
ENDCHAR

STARTCHAR periodcentered
ENCODING 183
SWIDTH 340 0
DWIDTH 4 0
BBX 1 1 2 3
BITMAP
80
ENDCHAR

STARTCHAR cedilla
ENCODING 184
SWIDTH 360 0
DWIDTH 3 0
BBX 2 2 1 -2
BITMAP
40
C0
ENDCHAR

STARTCHAR onesuperior
ENCODING 185
SWIDTH 408 0
DWIDTH 3 0
BBX 2 3 -3 3
BITMAP
40
40
C0
ENDCHAR

STARTCHAR ordmasculine
ENCODING 186
SWIDTH 440 0
DWIDTH 4 0
BBX 3 4 0 2
BITMAP
60
60
E0
E0
ENDCHAR

STARTCHAR guillemotright
ENCODING 187
SWIDTH 380 0
DWIDTH 3 0
BBX 3 4 0 0
BITMAP
C0
E0
A0
C0
ENDCHAR

STARTCHAR onequarter
ENCODING 188
SWIDTH 1020 0
DWIDTH 7 0
BBX 7 6 -3 0
BITMAP
48
58
D0
26
2E
46
ENDCHAR

STARTCHAR onehalf
ENCODING 189
SWIDTH 1020 0
DWIDTH 7 0
BBX 7 6 -3 0
BITMAP
48
58
D0
26
2E
4E
ENDCHAR

STARTCHAR threequarters
ENCODING 190
SWIDTH 1020 0
DWIDTH 7 0
BBX 7 6 -3 0
BITMAP
E8
F8
F0
26
2E
46
ENDCHAR

STARTCHAR questiondown
ENCODING 191
SWIDTH 620 0
DWIDTH 5 0
BBX 4 5 1 -2
BITMAP
20
20
C0
90
F0
ENDCHAR

STARTCHAR Agrave
ENCODING 192
SWIDTH 720 0
DWIDTH 6 0
BBX 6 8 0 0
BITMAP
10
08
18
18
28
78
4C
DC
ENDCHAR

STARTCHAR Aacute
ENCODING 193
SWIDTH 720 0
DWIDTH 6 0
BBX 6 8 0 0
BITMAP
08
10
18
18
28
78
4C
DC
ENDCHAR

STARTCHAR Acircumflex
ENCODING 194
SWIDTH 720 0
DWIDTH 6 0
BBX 6 7 0 0
BITMAP
1C
18
18
28
78
4C
DC
ENDCHAR

STARTCHAR Atilde
ENCODING 195
SWIDTH 720 0
DWIDTH 6 0
BBX 6 7 0 0
BITMAP
1C
18
18
28
78
4C
DC
ENDCHAR

STARTCHAR Adieresis
ENCODING 196
SWIDTH 720 0
DWIDTH 6 0
BBX 6 7 0 0
BITMAP
28
18
18
28
78
4C
DC
ENDCHAR

STARTCHAR Aring
ENCODING 197
SWIDTH 720 0
DWIDTH 6 0
BBX 6 8 0 0
BITMAP
18
18
18
18
28
78
4C
DC
ENDCHAR

STARTCHAR AE
ENCODING 198
SWIDTH 1140 0
DWIDTH 9 0
BBX 10 6 0 0
BITMAP
0FC0
1EC0
1D40
2700
45C0
EF80
ENDCHAR

STARTCHAR Ccedilla
ENCODING 199
SWIDTH 700 0
DWIDTH 6 0
BBX 5 8 1 -2
BITMAP
38
48
C8
C0
C8
70
20
60
ENDCHAR

STARTCHAR Egrave
ENCODING 200
SWIDTH 720 0
DWIDTH 6 0
BBX 6 8 0 0
BITMAP
10
08
7C
64
74
70
54
F8
ENDCHAR

STARTCHAR Eacute
ENCODING 201
SWIDTH 720 0
DWIDTH 6 0
BBX 6 8 0 0
BITMAP
08
10
7C
64
74
70
54
F8
ENDCHAR

STARTCHAR Ecircumflex
ENCODING 202
SWIDTH 720 0
DWIDTH 6 0
BBX 6 7 0 0
BITMAP
30
7C
64
74
70
54
F8
ENDCHAR

STARTCHAR Edieresis
ENCODING 203
SWIDTH 720 0
DWIDTH 6 0
BBX 6 7 0 0
BITMAP
28
7C
64
74
70
54
F8
ENDCHAR

STARTCHAR Igrave
ENCODING 204
SWIDTH 380 0
DWIDTH 3 0
BBX 4 8 0 0
BITMAP
40
20
70
60
60
40
40
E0
ENDCHAR

STARTCHAR Iacute
ENCODING 205
SWIDTH 380 0
DWIDTH 3 0
BBX 4 8 0 0
BITMAP
20
40
70
60
60
40
40
E0
ENDCHAR

STARTCHAR Icircumflex
ENCODING 206
SWIDTH 380 0
DWIDTH 3 0
BBX 4 7 0 0
BITMAP
70
70
60
60
40
40
E0
ENDCHAR

STARTCHAR Idieresis
ENCODING 207
SWIDTH 380 0
DWIDTH 3 0
BBX 4 7 0 0
BITMAP
50
70
60
60
40
40
E0
ENDCHAR

STARTCHAR Eth
ENCODING 208
SWIDTH 760 0
DWIDTH 6 0
BBX 6 6 0 0
BITMAP
7C
64
64
F4
4C
F8
ENDCHAR

STARTCHAR Ntilde
ENCODING 209
SWIDTH 740 0
DWIDTH 6 0
BBX 7 7 0 0
BITMAP
38
6E
54
54
54
48
C8
ENDCHAR

STARTCHAR Ograve
ENCODING 210
SWIDTH 760 0
DWIDTH 6 0
BBX 6 8 1 0
BITMAP
20
10
38
4C
CC
CC
C8
70
ENDCHAR

STARTCHAR Oacute
ENCODING 211
SWIDTH 760 0
DWIDTH 6 0
BBX 6 8 1 0
BITMAP
10
20
38
4C
CC
CC
C8
70
ENDCHAR

STARTCHAR Ocircumflex
ENCODING 212
SWIDTH 760 0
DWIDTH 6 0
BBX 6 7 1 0
BITMAP
38
38
4C
CC
CC
C8
70
ENDCHAR

STARTCHAR Otilde
ENCODING 213
SWIDTH 760 0
DWIDTH 6 0
BBX 6 7 1 0
BITMAP
38
38
4C
CC
CC
C8
70
ENDCHAR

STARTCHAR Odieresis
ENCODING 214
SWIDTH 760 0
DWIDTH 6 0
BBX 6 7 1 0
BITMAP
28
38
4C
CC
CC
C8
70
ENDCHAR

STARTCHAR multiply
ENCODING 215
SWIDTH 600 0
DWIDTH 5 0
BBX 3 3 1 1
BITMAP
A0
40
A0
ENDCHAR

STARTCHAR Oslash
ENCODING 216
SWIDTH 760 0
DWIDTH 6 0
BBX 7 6 1 0
BITMAP
3E
4C
DC
FC
E8
F0
ENDCHAR

STARTCHAR Ugrave
ENCODING 217
SWIDTH 740 0
DWIDTH 6 0
BBX 6 8 1 0
BITMAP
20
10
EC
48
C8
C8
C8
F0
ENDCHAR

STARTCHAR Uacute
ENCODING 218
SWIDTH 740 0
DWIDTH 6 0
BBX 6 8 1 0
BITMAP
10
20
EC
48
C8
C8
C8
F0
ENDCHAR

STARTCHAR Ucircumflex
ENCODING 219
SWIDTH 740 0
DWIDTH 6 0
BBX 6 7 1 0
BITMAP
38
EC
48
C8
C8
C8
F0
ENDCHAR

STARTCHAR Udieresis
ENCODING 220
SWIDTH 740 0
DWIDTH 6 0
BBX 6 7 1 0
BITMAP
50
EC
48
C8
C8
C8
F0
ENDCHAR

STARTCHAR Yacute
ENCODING 221
SWIDTH 660 0
DWIDTH 5 0
BBX 6 8 1 0
BITMAP
10
20
EC
48
30
30
20
70
ENDCHAR

STARTCHAR Thorn
ENCODING 222
SWIDTH 640 0
DWIDTH 5 0
BBX 6 6 0 0
BITMAP
70
78
6C
6C
78
E0
ENDCHAR

STARTCHAR germandbls
ENCODING 223
SWIDTH 660 0
DWIDTH 5 0
BBX 7 9 -1 -2
BITMAP
0E
0A
0A
16
12
12
1E
20
E0
ENDCHAR

STARTCHAR agrave
ENCODING 224
SWIDTH 680 0
DWIDTH 5 0
BBX 5 6 1 0
BITMAP
20
10
78
D0
90
F8
ENDCHAR

STARTCHAR aacute
ENCODING 225
SWIDTH 680 0
DWIDTH 5 0
BBX 5 6 1 0
BITMAP
10
20
78
D0
90
F8
ENDCHAR

STARTCHAR acircumflex
ENCODING 226
SWIDTH 680 0
DWIDTH 5 0
BBX 5 5 1 0
BITMAP
30
78
D0
90
F8
ENDCHAR

STARTCHAR atilde
ENCODING 227
SWIDTH 680 0
DWIDTH 5 0
BBX 5 5 1 0
BITMAP
38
78
D0
90
F8
ENDCHAR

STARTCHAR adieresis
ENCODING 228
SWIDTH 680 0
DWIDTH 5 0
BBX 5 5 1 0
BITMAP
50
78
D0
90
F8
ENDCHAR

STARTCHAR aring
ENCODING 229
SWIDTH 680 0
DWIDTH 5 0
BBX 5 6 1 0
BITMAP
30
30
78
D0
90
F8
ENDCHAR

STARTCHAR ae
ENCODING 230
SWIDTH 880 0
DWIDTH 7 0
BBX 7 4 0 0
BITMAP
FE
52
FE
DC
ENDCHAR

STARTCHAR ccedilla
ENCODING 231
SWIDTH 560 0
DWIDTH 4 0
BBX 4 6 0 -2
BITMAP
70
C0
90
E0
20
60
ENDCHAR

STARTCHAR egrave
ENCODING 232
SWIDTH 560 0
DWIDTH 4 0
BBX 4 6 0 0
BITMAP
20
10
70
D0
F0
E0
ENDCHAR

STARTCHAR eacute
ENCODING 233
SWIDTH 560 0
DWIDTH 4 0
BBX 4 6 0 0
BITMAP
10
20
70
D0
F0
E0
ENDCHAR

STARTCHAR ecircumflex
ENCODING 234
SWIDTH 560 0
DWIDTH 4 0
BBX 4 5 0 0
BITMAP
70
70
D0
F0
E0
ENDCHAR

STARTCHAR edieresis
ENCODING 235
SWIDTH 560 0
DWIDTH 4 0
BBX 4 5 0 0
BITMAP
50
70
D0
F0
E0
ENDCHAR

STARTCHAR igrave
ENCODING 236
SWIDTH 380 0
DWIDTH 3 0
BBX 3 6 1 0
BITMAP
40
20
C0
40
C0
E0
ENDCHAR

STARTCHAR iacute
ENCODING 237
SWIDTH 380 0
DWIDTH 3 0
BBX 3 6 1 0
BITMAP
20
40
C0
40
C0
E0
ENDCHAR

STARTCHAR icircumflex
ENCODING 238
SWIDTH 380 0
DWIDTH 3 0
BBX 3 5 1 0
BITMAP
E0
C0
40
C0
E0
ENDCHAR

STARTCHAR idieresis
ENCODING 239
SWIDTH 380 0
DWIDTH 3 0
BBX 3 5 1 0
BITMAP
A0
C0
40
C0
E0
ENDCHAR

STARTCHAR eth
ENCODING 240
SWIDTH 600 0
DWIDTH 5 0
BBX 5 6 0 0
BITMAP
70
50
78
D8
90
F0
ENDCHAR

STARTCHAR ntilde
ENCODING 241
SWIDTH 680 0
DWIDTH 5 0
BBX 5 5 1 0
BITMAP
38
F0
50
D0
98
ENDCHAR

STARTCHAR ograve
ENCODING 242
SWIDTH 600 0
DWIDTH 5 0
BBX 5 6 0 0
BITMAP
20
10
70
D8
90
F0
ENDCHAR

STARTCHAR oacute
ENCODING 243
SWIDTH 600 0
DWIDTH 5 0
BBX 5 6 0 0
BITMAP
10
20
70
D8
90
F0
ENDCHAR

STARTCHAR ocircumflex
ENCODING 244
SWIDTH 600 0
DWIDTH 5 0
BBX 5 5 0 0
BITMAP
70
70
D8
90
F0
ENDCHAR

STARTCHAR otilde
ENCODING 245
SWIDTH 600 0
DWIDTH 5 0
BBX 5 5 0 0
BITMAP
70
70
D8
90
F0
ENDCHAR

STARTCHAR odieresis
ENCODING 246
SWIDTH 600 0
DWIDTH 5 0
BBX 5 5 0 0
BITMAP
50
70
D8
90
F0
ENDCHAR

STARTCHAR divide
ENCODING 247
SWIDTH 600 0
DWIDTH 5 0
BBX 3 3 1 1
BITMAP
40
E0
40
ENDCHAR

STARTCHAR oslash
ENCODING 248
SWIDTH 600 0
DWIDTH 5 0
BBX 6 4 0 0
BITMAP
7C
F8
F0
F0
ENDCHAR

STARTCHAR ugrave
ENCODING 249
SWIDTH 680 0
DWIDTH 5 0
BBX 5 6 1 0
BITMAP
20
10
D8
50
D0
F8
ENDCHAR

STARTCHAR uacute
ENCODING 250
SWIDTH 680 0
DWIDTH 5 0
BBX 5 6 1 0
BITMAP
10
20
D8
50
D0
F8
ENDCHAR

STARTCHAR ucircumflex
ENCODING 251
SWIDTH 680 0
DWIDTH 5 0
BBX 5 5 1 0
BITMAP
38
D8
50
D0
F8
ENDCHAR

STARTCHAR udieresis
ENCODING 252
SWIDTH 680 0
DWIDTH 5 0
BBX 5 5 1 0
BITMAP
50
D8
50
D0
F8
ENDCHAR

STARTCHAR yacute
ENCODING 253
SWIDTH 600 0
DWIDTH 5 0
BBX 5 8 0 -2
BITMAP
10
20
C8
58
50
70
10
E0
ENDCHAR

STARTCHAR thorn
ENCODING 254
SWIDTH 660 0
DWIDTH 5 0
BBX 6 8 0 -2
BITMAP
60
20
38
6C
68
78
40
E0
ENDCHAR

STARTCHAR ydieresis
ENCODING 255
SWIDTH 600 0
DWIDTH 5 0
BBX 5 7 0 -2
BITMAP
28
C8
58
50
70
10
E0
ENDCHAR
ENDFONT
